<?xml version="1.0" encoding="utf-8"?><svg viewBox="0 0 48 48" xmlns="http://www.w3.org/2000/svg" xmlns:xlink="http://www.w3.org/1999/xlink"><style>:root>svg{display:none}:root>svg:target{display:block}</style><svg viewBox="0 0 48 48" id="ic-arrow_dropdown" xmlns="http://www.w3.org/2000/svg"><path d="M19.368 41.709c2.14 3.421 7.124 3.421 9.264 0L47.16 12.086c2.276-3.639-.34-8.36-4.632-8.36H5.472c-4.292 0-6.908 4.721-4.632 8.36L19.368 41.71z"/></svg><svg viewBox="0 0 48 48" id="ic-login" xmlns="http://www.w3.org/2000/svg"><path d="M3.35 31.675c-1.22.463-1.844 1.835-1.263 3.004a24 24 0 101.556-24.04c-.726 1.084-.284 2.524.866 3.14 1.151.617 2.572.174 3.325-.892A19.273 19.273 0 116.532 32.99c-.609-1.155-1.961-1.778-3.181-1.315z"/><path d="M2.58 21.84a2.16 2.16 0 100 4.32v-4.32zm31.527 3.688a2.16 2.16 0 000-3.055L20.361 8.727a2.16 2.16 0 10-3.055 3.055L29.526 24l-12.22 12.22a2.16 2.16 0 003.055 3.054l13.746-13.746zM2.58 26.16h30v-4.32h-30v4.32z"/></svg><svg viewBox="0 0 48 48" id="ic-phone" xmlns="http://www.w3.org/2000/svg"><path d="M32.002 34.11l4.133-4.134a4.038 4.038 0 014.318-.886l5.037 2.012a4.022 4.022 0 012.51 3.69v9.226a4.008 4.008 0 01-2.621 3.726 4.005 4.005 0 01-1.586.241C8.494 45.79 1.372 15.897.025 4.457A4.004 4.004 0 014.029.01h8.912a3.986 3.986 0 013.69 2.51l2.012 5.037a3.983 3.983 0 01-.867 4.317l-4.134 4.134s2.38 16.108 18.36 18.101z"/></svg><svg viewBox="0 0 48 48" id="ic-training_01" xmlns="http://www.w3.org/2000/svg"><path d="M34.787 14.594L30.68 18.7c1.642 2.165 2.24 4.628 1.642 7.315-.522 2.09-1.716 3.808-3.508 5.002-3.509 2.463-8.212 1.94-11.123-1.194-2.986-3.21-3.135-7.913-.299-11.273 2.538-3.06 7.465-4.553 11.87-1.343a210.868 210.868 0 004.03-4.106c-2.388-2.016-5.15-3.21-8.435-3.434v2.613c0 .746-.373 1.194-.97 1.194s-.97-.448-.97-1.194V5.86a16.45 16.45 0 00-5.375 1.12c-5.972 2.388-9.78 6.718-11.347 12.989 0 .149-.075.224-.075.373-.15.523-.597.821-1.12.746-.522-.149-.82-.597-.746-1.194.523-2.687 1.568-5.15 3.135-7.316 3.733-5.001 8.585-7.913 14.781-8.51.224 0 .523-.074.821-.074V1.456c0-.896.299-1.344.97-1.344.598 0 .971.448.971 1.269V7.8c3.733.298 7.017 1.642 9.78 4.03.447-.447.82-.895 1.343-1.417-.97-.672-1.866-1.419-2.911-2.016-1.643-.97-3.36-1.717-5.226-2.09-.15 0-.299-.075-.373-.075a.959.959 0 01-.672-1.194c.15-.523.597-.821 1.194-.672a17.485 17.485 0 016.57 2.687c.97.672 1.866 1.344 2.986 2.165.074-.298.298-.522.298-.746v-3.06c0-.373.15-.821.448-1.045 1.194-1.27 2.464-2.538 3.733-3.807.373-.374.746-.523 1.194-.299.448.15.597.597.597 1.045v2.912h2.912c.522 0 .895.149 1.12.597.148.522 0 .896-.374 1.194-1.27 1.195-2.463 2.464-3.658 3.658-.298.299-.746.448-1.12.448-.97.075-2.015 0-2.986 0-.224 0-.522.224-.82.299 1.641 1.866 2.836 3.732 3.732 5.897.895 2.165 1.343 4.33 1.493 6.718h2.613c.746 0 1.194.374 1.194.97 0 .598-.448.971-1.194.971H40.46c-.448 1.643-.672 3.285-1.269 4.778-1.94 5.001-5.524 8.286-10.675 9.854-.149 0-.224.074-.373.074-.597.15-1.045-.149-1.194-.672-.15-.522.149-.97.746-1.194.373-.15.747-.224 1.045-.373 5.674-2.165 8.884-6.345 9.555-12.317v-.224h-2.538c-.746 0-1.194-.374-1.194-.97 0-.598.448-.971 1.194-.971h6.42c-.298-4.255-1.791-7.988-4.553-11.123l-1.344 1.344c.075.074.15.223.298.373 1.419 1.717 2.464 3.658 3.061 5.823.299.895.075 1.418-.523 1.642-.597.15-1.045-.224-1.269-1.045-.746-1.941-1.717-3.733-3.06-5.375zM27.844 18.7c-2.24-1.867-6.12-2.016-8.734.672-2.538 2.687-2.538 6.643.075 9.256 2.613 2.613 6.644 2.688 9.257.15 2.687-2.539 2.687-6.42.746-8.81l-1.045 1.046c-.299.224-.224.448-.075.746.523 1.045.747 2.09.448 3.21-.597 2.613-3.284 4.255-5.822 3.583-2.613-.671-4.18-3.434-3.434-5.972.82-2.612 3.583-4.18 6.046-3.135 1.045.448 1.643.15 2.165-.597.224 0 .299-.075.373-.15zm-1.343 4.03c-.672.673-1.27 1.344-1.867 1.942-.373.373-.895.373-1.269 0-.373-.374-.447-.822-.149-1.27l.448-.447 1.568-1.568c-1.419-.597-2.837-.15-3.584.97a2.834 2.834 0 00.374 3.584c.97.97 2.389 1.12 3.583.373 1.045-.747 1.493-2.165.896-3.583zM39.788 8.175h2.315c.149 0 .373 0 .447-.075l2.016-2.015h-1.642c-.672 0-1.045-.373-1.045-1.045V3.322l-1.941 1.94a.57.57 0 00-.15.374c-.074.896 0 1.642 0 2.538z"/><path d="M3.807 24.97H1.194C.448 24.97 0 24.598 0 24s.448-.896 1.12-.97h6.42c.298-1.27.448-2.464.82-3.658.3-.97.747-1.941 1.12-2.837.3-.597.822-.821 1.344-.523.523.3.672.822.299 1.419-.896 1.791-1.493 3.658-1.568 5.673h2.389c.896 0 1.344.299 1.418.97 0 .673-.448.971-1.418.971H5.748c.075 1.568.299 3.06.821 4.48 2.24 6.494 6.644 10.6 13.288 12.242.224.074.522.15.746.298.374.299.523.672.299 1.12-.224.448-.597.672-1.12.597-2.314-.522-4.553-1.343-6.569-2.612-5.375-3.733-8.51-8.81-9.257-15.378 0-.224-.074-.448-.074-.672 0 0 0-.075-.075-.15z"/><path d="M24.933 44.08v2.613c0 .747-.373 1.195-.97 1.195-.598 0-.97-.448-.97-1.195v-6.42c-.971-.149-1.867-.298-2.763-.522-6.047-1.568-10.003-5.3-11.87-11.272-.074-.224-.149-.374-.149-.598 0-.522.224-.82.672-.97.448-.15.896 0 1.12.448l.224.672c1.642 5.673 6.942 10.003 12.765 10.227V35.72c0-.747.373-1.195.896-1.195.597 0 .97.448.97 1.195v6.494c1.195-.224 2.39-.373 3.509-.597 2.015-.448 3.807-1.269 5.524-2.389.15-.074.299-.224.448-.298.448-.15.821-.075 1.12.298.298.373.224.821-.075 1.12-.15.15-.373.299-.597.448-2.912 1.866-6.121 2.911-9.555 3.21 0 0-.15.075-.299.075zm15.304-8.809c-.97 0-1.344-.746-.97-1.567a71.416 71.416 0 001.94-4.18c.224-.598.374-1.27.523-1.867.15-.597.597-.896 1.12-.821.522.15.82.597.746 1.269a17.485 17.485 0 01-2.687 6.57 2.242 2.242 0 01-.672.596zM15.378 12.28c-.224-.224-.597-.448-.746-.821-.224-.448.075-.821.448-1.12 1.418-.896 2.986-1.642 4.628-2.015.523-.15.896 0 1.12.447a.984.984 0 01-.523 1.419c-1.567.448-2.986 1.045-4.33 1.94-.074 0-.223 0-.597.15zm-1.717 1.418c0 .522-.447.896-.97.896-.523 0-.896-.448-.896-.97 0-.523.448-.897.97-.897.448 0 .896.448.896.971zm24.933 23.59c0 .522-.448.97-.97.97-.523 0-.97-.373-.97-.896 0-.522.373-.97.895-.97.597 0 1.045.373 1.045.896z"/></svg><svg viewBox="0 0 48 48" id="ic-training_02" xmlns="http://www.w3.org/2000/svg"><path d="M3.2 40.4h21.6v2.4a2.4 2.4 0 002.4 2.4h3.201c.7 0 1.363-.312 1.813-.837.012 0 .025 0 .037-.012.588.55 1.35.85 2.15.85h9.6a2.4 2.4 0 002.4-2.4c0-.413-.112-.825-.324-1.175a2.36 2.36 0 00.8-3.2c.6-.376 1-1 1.1-1.7.1-.7-.125-1.413-.6-1.926.637-.7.8-1.712.412-2.575a2.417 2.417 0 00-2.2-1.425h-2.4V6c0-1.763-1.438-3.2-3.2-3.2H3.2A3.206 3.206 0 000 6v31.2c0 1.763 1.438 3.2 3.2 3.2zm27.201 3.2h-3.2a.806.806 0 01-.8-.8v-7.2c0-.437.362-.8.8-.8h3.2c.438 0 .8.363.8.8v7.2c0 .438-.362.8-.8.8zm16-10.4c0 .438-.362.8-.8.8h-2.4c-.437 0-.8.363-.8.8 0 .438.363.8.8.8h2.4c.438 0 .8.363.8.8 0 .438-.362.8-.8.8h-2.4c-.437 0-.8.363-.8.8 0 .438.363.8.8.8h1.6c.438 0 .8.363.8.8 0 .438-.362.8-.8.8h-1.6c-.437 0-.8.363-.8.8 0 .438.363.8.8.8h.8c.438 0 .8.363.8.8 0 .438-.362.8-.8.8h-9.6c-.887 0-1.6-.712-1.6-1.6v-6.737c1-.625 1.75-1.588 2.125-2.7a20.953 20.953 0 001.075-6.625c0-.113.075-.2.175-.238.275-.05.988-.175 1.663 1.15.375.763.562 1.6.55 2.463V31.6c0 .438.362.8.8.8h6.4a.81.81 0 01.813.8zm-6.4-2.4v-1.487c.013-1.1-.237-2.2-.725-3.188-.787-1.537-1.987-2.25-3.375-2-.875.163-1.5.925-1.5 1.813 0 2.075-.337 4.15-.987 6.125a3.538 3.538 0 01-1.388 1.8 2.446 2.446 0 00-1.625-.65h-3.2a2.4 2.4 0 00-2.4 2.4v3.2H3.2a1.596 1.596 0 01-1.601-1.6V10.8H41.6v20H40zM3.201 4.4H40c.888 0 1.6.712 1.6 1.6v3.2h-40V6a1.594 1.594 0 011.6-1.6z"/><path fill-rule="evenodd" clip-rule="evenodd" d="M4.8 6.798c0 .438-.363.8-.8.8a.806.806 0 01-.8-.8c0-.437.362-.8.8-.8.437 0 .8.363.8.8zm3.2 0c0 .438-.362.8-.8.8a.806.806 0 01-.8-.8c0-.437.363-.8.8-.8.438 0 .8.363.8.8zm3.2 0c0 .438-.363.8-.8.8a.806.806 0 01-.8-.8c0-.437.362-.8.8-.8.437 0 .8.363.8.8z"/><path d="M6.4 27.6h12.8a2.4 2.4 0 002.4-2.4v-9.6a2.4 2.4 0 00-2.4-2.4H6.4A2.4 2.4 0 004 15.6v9.6a2.4 2.4 0 002.4 2.4zM8.363 26l3.7-5.825 1.775 2.225-2.275 3.6h-3.2zM19.2 26h-5.737l4.212-6.625L20 22.288v2.925a.803.803 0 01-.8.787zM5.6 15.6c0-.437.363-.8.8-.8h12.8c.438 0 .8.363.8.8v4.125L18.225 17.5a.81.81 0 00-.662-.3.804.804 0 00-.638.375l-2.162 3.4-2.138-2.675a.81.81 0 00-.662-.3.804.804 0 00-.638.375L6.475 26H6.4a.806.806 0 01-.8-.8v-9.6z"/><path fill-rule="evenodd" clip-rule="evenodd" d="M8.8 17.2c0 .437-.363.8-.8.8a.806.806 0 01-.8-.8c0-.438.362-.8.8-.8.437 0 .8.362.8.8zm29.6-3.201H24.8c-.437 0-.8.362-.8.8 0 .438.363.8.8.8h13.6c.438 0 .8-.363.8-.8 0-.438-.362-.8-.8-.8zm0 3.201H24.8c-.437 0-.8.363-.8.8 0 .438.363.8.8.8h13.6c.438 0 .8-.362.8-.8 0-.437-.362-.8-.8-.8zm0 3.2H24.8c-.437 0-.8.362-.8.8 0 .437.363.8.8.8h13.6c.438 0 .8-.363.8-.8 0-.438-.362-.8-.8-.8zM32 23.6h-7.2c-.437 0-.8.363-.8.8 0 .438.363.8.8.8H32c.438 0 .8-.362.8-.8 0-.437-.362-.8-.8-.8zm-8.8 7.2H4.8c-.437 0-.8.363-.8.8 0 .438.363.8.8.8h18.4c.438 0 .8-.362.8-.8 0-.437-.362-.8-.8-.8zM20.8 34h-16c-.437 0-.8.362-.8.8 0 .437.363.8.8.8h16c.438 0 .8-.363.8-.8 0-.438-.362-.8-.8-.8z"/></svg><svg viewBox="0 0 48 48" id="ic-training_03" xmlns="http://www.w3.org/2000/svg"><path d="M12.624 47.9c-.898-.399-1.298-.998-1.198-1.996v-1.596H3.742c-1.197 0-1.796-.6-1.796-1.797v-1.497c0-.498.3-.798.699-.798.399 0 .698.3.698.798v1.497c0 .2.1.3.3.3h7.783v-4.59c-1.896-1.198-2.495-1.996-2.794-4.192-1.197 0-2.395-.1-3.493 0-.998.1-1.696 1.198-1.796 2.295v1.397c0 .5-.3.799-.698.799-.4 0-.699-.3-.699-.799v-1.596c.1-1.198.699-2.196 1.697-2.894.1-.1.2-.1.299-.2-.4-1.297-.898-2.495-1.198-3.692-1.596-6.387-.598-12.274 3.094-17.763.2-.3.3-.499.1-.898a2.586 2.586 0 01.499-2.994c.798-.798 1.896-1.098 2.993-.599.2.2.4.1.6-.1 1.197-.798 2.295-1.596 3.492-2.395.499-.299.898-.2 1.098.2.2.4 0 .699-.4.998-1.097.798-2.195 1.497-3.293 2.295-.2.1-.2.3-.1.5.4.997.2 1.995-.498 2.694-.699.798-1.597 1.097-2.695.798-.3-.1-.399 0-.599.2-1.995 2.893-3.193 6.087-3.492 9.68-.4 3.592.2 6.985 1.596 10.278.1.3.3.4.699.4h4.091c.1-.4 0-.6-.2-.8-1.197-.997-1.995-2.195-2.195-3.692 0-.299-.1-.399-.399-.499-1.796-.499-2.395-2.694-1.097-4.091.1-.1.2-.4.2-.599v-4.39c0-2.196 1.396-3.793 3.392-4.192.3-.1.699-.1.998-.1h4.49c.999 0 1.996.3 2.795.998.1.1.3.1.399.1.898-.4 1.796-.499 2.794-.499h1.397c.4 0 .699.3.799.699 0 .399-.3.698-.799.698h-2.095a3.392 3.392 0 00-3.393 3.194c-.1 1.496 0 2.993 0 4.49v.2c.399.1.399-.1.499-.4a7.874 7.874 0 011.197-2.993c.4-.5.599-.599 1.198-.4 1.896.6 3.692 1.098 5.688 1.298.499 0 1.098 0 1.596-.1.3-.1.699-.3.899-.499.399-.4.898-.4 1.197.1.499.798.898 1.696.998 2.595 0 .2.1.498.4.399v-3.293c0-.5-.1-.799-.7-.799-.398-.1-.598-.399-.598-.798 0-.799-.3-1.397-.798-1.996a2.83 2.83 0 00-2.196-.998h-.798c-.4 0-.699-.3-.699-.698 0-.4.3-.699.699-.699 1.098-.1 2.195.1 3.093.599.998-.998 2.196-1.297 3.493-1.198h4.39c1.897 0 3.394 1.198 3.893 2.994 0 .1.1.3.3.4.598.398.897.997.897 1.696v3.393c0 .2.1.498.3.598 1.297 1.398.698 3.493-1.098 4.092-.3.1-.3.2-.4.399-.299 1.497-.997 2.794-2.195 3.792-.2.1-.2.4-.399.599l.1.1h4.191c.4 0 .5-.1.699-.4 1.397-3.293 1.896-6.686 1.597-10.178-.3-3.493-1.497-6.686-3.393-9.58-.2-.3-.4-.4-.699-.3-.998.3-1.896 0-2.595-.798-.698-.798-.898-1.697-.498-2.694-.1 0-.2-.2-.4-.4-2.894-2.295-6.187-3.792-9.88-4.39-.398-.1-.598 0-.797.399-.998 1.796-3.593 1.696-4.59 0-.2-.3-.4-.4-.7-.3-1.197.3-2.394.6-3.592.898-.2.1-.599.1-.798 0-.2-.1-.4-.399-.3-.598.1-.2.3-.6.5-.6 1.197-.398 2.294-.598 3.492-.897h.2c.598 0 .898-.2 1.097-.799C22.005.5 22.902 0 24.1 0c1.098.1 1.996.599 2.395 1.696.2.4.4.5.798.6 3.992.598 7.485 2.095 10.578 4.69.3.199.5.299.898.1.998-.4 2.196-.1 2.894.698.699.798.899 1.996.4 2.994-.1.2-.2.399 0 .698 4.49 6.686 5.089 13.771 2.095 21.256 0 .1-.1.2-.1.3.2.099.3.199.5.398.997.799 1.496 1.797 1.496 3.094v6.087c0 1.198-.599 1.797-1.796 1.797h-7.685v1.596c.1.998-.298 1.597-1.197 1.996-7.684-.1-15.168-.1-22.752-.1zM28.99 36.524c-.3 3.193-2.695 4.89-4.99 4.89-1.197 0-2.195-.3-3.093-1.098-1.298-.998-1.896-2.295-1.996-3.892h-3.194c-1.796 0-2.894 1.098-2.894 2.894v6.586c0 .4.1.6.6.6h21.253c.2 0 .5.099.5-.3v-7.085c0-1.298-1.098-2.495-2.295-2.495-1.397-.2-2.595-.1-3.892-.1zm-.3-13.672c-3.193 1.098-5.987-.1-8.881-.798-.1.1-.2.2-.2.4-.499.698-.698 1.496-.698 2.294 0 1.697-.1 3.393.1 4.99.299 2.595 2.694 4.49 5.288 4.291 2.595-.2 4.69-2.295 4.69-4.89v-4.49c0-.6-.199-1.198-.299-1.797zM9.23 21.356c-.099.598-.299 1.097-.398 1.596a35.23 35.23 0 000 4.59c.2 2.695 2.594 4.491 5.189 4.092 1.297-.2 2.395-.998 3.093-2.096-.1 0-.2-.1-.2-.1-1.696-.698-2.294-2.295-1.396-3.891 0-.1.1-.1.1-.2v-2.894c-2.196 0-4.192-.499-6.387-1.097zM44.459 42.91v-6.687c0-.997-.799-1.995-1.797-2.095-1.197-.1-2.295 0-3.492 0-.3 2.195-.899 3.093-2.795 4.191v4.59h8.084zM30.786 29.439c0 .1.1.2.1.2.998 1.496 2.994 2.294 4.69 1.895 1.896-.499 3.293-1.995 3.393-3.892.1-1.397.1-2.893 0-4.29 0-.5-.2-1.098-.2-1.597-2.295 1.097-4.39.399-6.586 0v2.994c0 .299.1.498.2.698.698 1.397.2 3.094-1.298 3.692-.1.2-.2.3-.299.3zm-.898-12.973l.898 2.095c.1.3.2.4.4.6.299.298.598.598.897.997l.4.4c.698.199 1.297.398 1.995.398.998.1 1.896.1 2.894 0 .3 0 .5-.399.699-.598.2-.2.399-.5.599-.5.2 0 .498.2.698.4.3.399.5.798.699 1.297V19.46c0-.1-.2-.299-.3-.399-.499-.1-.698-.399-.698-.898-.1-1.297-1.098-2.295-2.395-2.295h-5.09c-.698-.1-1.297.2-1.696.599zm-22.154 4.89c.2-.3.4-.6.499-.899.4-.598.599-.698 1.297-.499.998.3 1.996.5 2.994.799.998.2 2.096.399 3.193.2-.1-1.697.1-3.294 1.298-4.491-.5-.4-.998-.6-1.597-.6h-4.99c-1.497 0-2.594.999-2.694 2.496-.1.898 0 1.996 0 2.994zm18.262 13.77c-1.597.4-2.096.5-4.191 0 .3 1.198-.4 1.498-1.397 1.298.1 1.996 1.696 3.593 3.692 3.593 1.996-.1 3.592-1.697 3.493-3.493-.4-.1-.898-.1-1.098-.3-.4-.199-.4-.698-.5-1.097zm-14.07 1.797c.498-.499.997-.898 1.496-1.297.798-.5 1.597-.599 2.595-.599.2 0 .399-.1.399-.2.1-.2.1-.498.2-.898-.899.1-1.497-.1-1.398-1.197a6.669 6.669 0 01-3.692.1c-.1.399-.2.798-.4.998-.199.2-.698.2-.997.299-.1 1.098.699 2.295 1.796 2.794zm20.756-4.091c-.2.998-.2.998-1.297 1.197-.1.898 0 .998.898.998 1.098 0 2.096.3 2.894 1.098.3.2.499.499.798.798 1.198-.499 2.096-1.896 1.896-2.894-1.098-.1-1.197 0-1.297-1.197-1.397.399-2.595.299-3.892 0zM8.332 10.877A1.32 1.32 0 009.63 9.58c0-.698-.599-1.297-1.197-1.297-.699 0-1.298.499-1.298 1.197-.1.799.5 1.397 1.198 1.397zM23.9 3.892c.699 0 1.298-.599 1.298-1.297 0-.699-.6-1.198-1.298-1.298-.698 0-1.297.6-1.297 1.298.1.798.599 1.297 1.297 1.297zm15.668 6.985a1.32 1.32 0 001.297-1.297c0-.698-.499-1.197-1.198-1.297-.698 0-1.297.499-1.297 1.197-.1.799.5 1.397 1.198 1.397zm-19.26 24.15c.1-.599-.1-.998-.5-.998-.598-.1-1.197 0-1.895 0 0 .4-.1.699-.1.998h2.495zm9.58-.998H28.39c-.699 0-.998.3-.798.998h2.494c-.1-.4-.1-.699-.2-.998zm1.397-1.497c0-.898-.898-.998-1.198-1.596l-.798 1.596h1.996zm-12.773 0c-.3-.499-.5-.998-.799-1.497-.3.3-.499.5-.798.699-.3.2-.599.4-.4.798h1.997zm-1.098-4.49v-2.296c-.599.1-.898.5-.898.998 0 .6.3 1.098.898 1.298zm12.973-2.296v2.296c.598-.1.898-.6.898-1.098.1-.599-.3-.998-.898-1.198zM7.435 24.35c-.5.2-.699.599-.699.998 0 .4.2.699.699.898V24.35zm33.03 1.896c.5-.2.7-.499.7-.998 0-.399-.2-.698-.7-.898v1.896z"/></svg><svg viewBox="0 0 48 48" id="ic-training_04" xmlns="http://www.w3.org/2000/svg"><path d="M24 9a14.993 14.993 0 1015 15A15.017 15.017 0 0024 9zm6 26.517V33a1 1 0 10-2 0v3.354a12.707 12.707 0 01-8 0V33a1 1 0 10-2 0v2.517a13.07 13.07 0 01-2.04-1.324A.969.969 0 0016 34v-3a3 3 0 013-3h1.586l2.707 2.707a1 1 0 001.414 0L27.414 28H29a3 3 0 013 3v3c.006.066.02.13.039.193-.637.504-1.32.948-2.04 1.324zm4-3.246V31a5.006 5.006 0 00-5-5h-2a1 1 0 00-.707.293L24 28.586l-2.293-2.293A1 1 0 0021 26h-2a5.006 5.006 0 00-5 5v1.272a13 13 0 1120 0v-.001z"/><path d="M24 14a4.999 4.999 0 100 9.998A4.999 4.999 0 0024 14zm0 8a3 3 0 110-5.999A3 3 0 0124 22z"/><path d="M47 23h-2.051A20.992 20.992 0 0025 3.051V1a1 1 0 00-2 0v2.051A20.992 20.992 0 003.051 23H1a1 1 0 000 2h2.051A20.992 20.992 0 0023 44.949V47a1 1 0 002 0v-2.051A20.992 20.992 0 0044.949 25H47a1 1 0 000-2zm-5 2h.949A18.993 18.993 0 0125 42.949V42a1 1 0 00-2 0v.949A18.993 18.993 0 015.051 25H6a1 1 0 000-2h-.949A18.993 18.993 0 0123 5.051V6a1 1 0 002 0v-.949A18.993 18.993 0 0142.949 23H42a1 1 0 000 2z"/><path d="M16 21h-1a1 1 0 000 2h1a1 1 0 000-2zm16 0a1 1 0 000 2h1a1 1 0 000-2h-1z"/></svg><svg viewBox="0 0 48 48" id="ic-wallet" xmlns="http://www.w3.org/2000/svg"><g clip-path="url(#ha)"><path d="M41 35a1 1 0 00-1 1v4a3 3 0 01-3 3H5a3 3 0 01-3-3V8.005A2.853 2.853 0 015 5h19.586l1.707 1.707a1 1 0 001.414-1.414l-2-2A1 1 0 0025 3H5a4.821 4.821 0 00-5 5v32a5.006 5.006 0 005 5h32a5.006 5.006 0 005-5v-4a1 1 0 00-1-1z"/><path d="M46 23h-1a1 1 0 000 2h1v6H32v-6h9a1 1 0 001-1V14a5.006 5.006 0 00-5-5H6a1 1 0 000 2h31a3 3 0 013 3v9h-8a2 2 0 00-2 2v6a2 2 0 002 2h14a2 2 0 002-2v-6a2 2 0 00-2-2z"/><path d="M35 27a1 1 0 000 2h2a1 1 0 000-2h-2zM6 35a1 1 0 00-1 1v2a1.959 1.959 0 002 2h2a1 1 0 000-2H7v-2a1 1 0 00-1-1zm30-16a1 1 0 001-1v-2a1.958 1.958 0 00-2-2h-2a1 1 0 100 2h2v2a1 1 0 001 1zM13 39a1 1 0 001 1h20a1 1 0 000-2H14a1 1 0 00-1 1zm15-25H8a1 1 0 000 2h20a1 1 0 000-2z"/></g><defs><clipPath id="ha"><path d="M0 0h48v48H0z"/></clipPath></defs></svg></svg>