<?xml version="1.0" encoding="utf-8"?><svg viewBox="0 0 19 22" xmlns="http://www.w3.org/2000/svg" xmlns:xlink="http://www.w3.org/1999/xlink"><style>:root>svg{display:none}:root>svg:target{display:block}</style><svg viewBox="0 0 19 22" id="iconspace-bell-notification" xmlns="http://www.w3.org/2000/svg"><g transform="translate(-2 -1)" fill-rule="evenodd"><path d="M0 0h24v24H0z"/><path d="M9.768 20a2 2 0 003.464 0H9.768zm5.606 0a4.002 4.002 0 01-7.748 0H2l2.483-6.193V10c0-3.866 3.142-7 7.017-7 3.875 0 7.017 3.134 7.017 7v3.807L21 20h-5.626zm1.138-5.807V10c0-2.761-2.244-5-5.012-5a5.006 5.006 0 00-5.012 5v4.193L4.96 18h13.08l-1.527-3.807z" fill-rule="nonzero"/><circle cx="16" cy="4" r="3"/></g></svg></svg>