<svg width="48" height="48" viewBox="0 0 48 48" fill="none" xmlns="http://www.w3.org/2000/svg">
<path d="M3.35056 31.675C2.13009 32.1382 1.50573 33.5095 2.08653 34.6786C4.1583 38.8488 7.40771 42.3427 11.4555 44.7123C16.1859 47.4814 21.7216 48.5477 27.1423 47.7341C32.5627 46.9205 37.5415 44.2762 41.2507 40.2403C44.9596 36.2045 47.1756 31.0207 47.5298 25.5509C47.884 20.0811 46.3552 14.6549 43.1976 10.1745C40.0401 5.69404 35.4441 2.42946 30.1737 0.923556C24.9033 -0.582372 19.2763 -0.23886 14.2282 1.89697C9.9086 3.7246 6.23567 6.77034 3.64336 10.6384C2.91664 11.7227 3.35889 13.1633 4.50945 13.7799C5.66 14.3965 7.08126 13.9531 7.83397 12.8866C9.89773 9.96251 12.7454 7.65716 16.0701 6.25045C20.124 4.53532 24.6427 4.25946 28.8748 5.46877C33.1072 6.67806 36.798 9.29965 39.3338 12.8976C41.8694 16.4955 43.097 20.8531 42.8126 25.2456C42.5282 29.6379 40.7486 33.8007 37.7702 37.0416C34.7916 40.2823 30.7934 42.4061 26.4405 43.0594C22.0876 43.7127 17.6423 42.8563 13.8436 40.6327C10.728 38.809 8.20149 36.1555 6.53209 32.9897C5.92321 31.8351 4.57103 31.212 3.35056 31.675Z" fill="black"/>
<path d="M2.57992 21.8404C1.38698 21.8404 0.419922 22.8073 0.419922 24.0004C0.419922 25.1934 1.38698 26.1604 2.57992 26.1604V21.8404ZM34.1073 25.5277C34.9509 24.6841 34.9509 23.3166 34.1073 22.473L20.361 8.72688C19.5177 7.88336 18.1499 7.88336 17.3064 8.72688C16.4629 9.57041 16.4629 10.9381 17.3064 11.7816L29.5252 24.0004L17.3064 36.2193C16.4629 37.0626 16.4629 38.4304 17.3064 39.274C18.1499 40.1174 19.5177 40.1174 20.361 39.274L34.1073 25.5277ZM2.57992 26.1604H32.5799V21.8404H2.57992V26.1604Z" fill="black"/>
</svg>
