<svg width="48" height="48" viewBox="0 0 48 48" fill="none" xmlns="http://www.w3.org/2000/svg">
<path d="M12.6238 47.9002C11.7257 47.501 11.3265 46.9023 11.4263 45.9044C11.4263 45.4054 11.4263 44.8066 11.4263 44.3077C11.2267 44.3077 11.0271 44.3077 10.8276 44.3077C8.43253 44.3077 6.13731 44.3077 3.7423 44.3077C2.5448 44.3077 1.94604 43.7089 1.94604 42.5115C1.94604 42.0125 1.94604 41.5135 1.94604 41.0145C1.94604 40.5156 2.24542 40.2163 2.64459 40.2163C3.04376 40.2163 3.34313 40.5156 3.34313 41.0145C3.34313 41.5135 3.34313 42.0125 3.34313 42.5115C3.34313 42.711 3.44292 42.8108 3.64251 42.8108C6.2371 42.8108 8.7319 42.8108 11.4263 42.8108C11.4263 41.2141 11.4263 39.7173 11.4263 38.2204C9.53025 37.0229 8.93149 36.2245 8.63211 34.0291C7.43461 34.0291 6.2371 33.9293 5.1394 34.0291C4.14147 34.1289 3.44292 35.2266 3.34313 36.3243C3.34313 36.8233 3.34313 37.2225 3.34313 37.7214C3.34313 38.2204 3.04376 38.5197 2.64459 38.5197C2.24542 38.5197 1.94604 38.2204 1.94604 37.7214C1.94604 37.2225 1.94604 36.6237 1.94604 36.1247C2.04583 34.9273 2.64459 33.9293 3.64251 33.2308C3.7423 33.1309 3.8421 33.1309 3.94188 33.0312C3.54272 31.7339 3.04376 30.5364 2.74438 29.3388C1.14771 22.9522 2.14563 17.0645 5.83794 11.5758C6.03752 11.2765 6.13731 11.077 5.93772 10.6778C5.43877 9.67979 5.63835 8.48233 6.43669 7.68399C7.23503 6.88566 8.33274 6.58628 9.43043 7.08524C9.63007 7.28482 9.82961 7.18503 10.0292 6.98544C11.2267 6.18711 12.3245 5.38877 13.5219 4.59044C14.0209 4.29106 14.4201 4.39085 14.6196 4.79002C14.8192 5.18919 14.6196 5.48857 14.2205 5.78794C13.1227 6.58628 12.025 7.28482 10.9273 8.08316C10.7278 8.18296 10.7278 8.38253 10.8276 8.58212C11.2267 9.58008 11.0271 10.578 10.3286 11.2765C9.63007 12.0748 8.7319 12.3742 7.6342 12.0748C7.33481 11.975 7.23503 12.0748 7.03544 12.2745C5.0396 15.1684 3.8421 18.3617 3.54272 21.9543C3.14355 25.5467 3.7423 28.9397 5.1394 32.2329C5.23919 32.5322 5.43877 32.6321 5.83794 32.6321C7.23503 32.6321 8.63211 32.6321 9.92943 32.6321C10.0292 32.2329 9.92943 32.0332 9.72979 31.8337C8.53233 30.8357 7.73399 29.6383 7.5344 28.1414C7.5344 27.842 7.43461 27.7422 7.13524 27.6424C5.33897 27.1434 4.74022 24.948 6.03752 23.551C6.13731 23.4511 6.23711 23.1518 6.23711 22.9522C6.23711 21.4553 6.23711 20.0582 6.23711 18.5613C6.23711 16.3659 7.6342 14.7692 9.63007 14.3701C9.92943 14.2702 10.3286 14.2702 10.628 14.2702C12.1248 14.2702 13.6217 14.2702 15.1186 14.2702C16.1166 14.2702 17.1145 14.5696 17.9128 15.2682C18.0125 15.3679 18.2122 15.3679 18.312 15.3679C19.21 14.9688 20.1082 14.8691 21.1061 14.8691C21.6051 14.8691 22.0043 14.8691 22.5033 14.8691C22.9024 14.8691 23.2018 15.1684 23.3016 15.5676C23.3016 15.9668 23.0021 16.2661 22.5033 16.2661C21.8046 16.2661 21.1061 16.2661 20.4076 16.2661C18.6113 16.2661 17.1145 17.6632 17.0146 19.4595C16.9148 20.9564 17.0146 22.4533 17.0146 23.9501C17.0146 24.0499 17.0146 24.0499 17.0146 24.1497C17.4138 24.2495 17.4138 24.0499 17.5136 23.7505C17.7132 22.6528 18.1123 21.6549 18.7112 20.7567C19.1103 20.2578 19.3099 20.158 19.9086 20.3576C21.8046 20.9564 23.601 21.4553 25.5967 21.6549C26.0957 21.6549 26.6945 21.6549 27.1934 21.5551C27.4928 21.4553 27.892 21.2557 28.0916 21.0561C28.4908 20.6569 28.9897 20.6569 29.2891 21.1559C29.788 21.9543 30.1872 22.8524 30.287 23.7505C30.287 23.9501 30.3868 24.2495 30.6862 24.1497C30.6862 24.0499 30.6862 23.9501 30.6862 23.8503C30.6862 22.8524 30.6862 21.8545 30.6862 20.8566C30.6862 20.3576 30.5864 20.0582 29.9876 20.0582C29.5885 19.9584 29.3888 19.659 29.3888 19.2599C29.3888 18.4615 29.0895 17.8628 28.5906 17.264C27.9918 16.5655 27.1934 16.2661 26.3951 16.2661C26.0957 16.2661 25.7964 16.2661 25.5967 16.2661C25.1976 16.2661 24.8982 15.9668 24.8982 15.5676C24.8982 15.1684 25.1976 14.8691 25.5967 14.8691C26.6945 14.7692 27.7922 14.9688 28.6903 15.4678C29.6883 14.4699 30.8857 14.1705 32.183 14.2702C33.6799 14.2702 35.077 14.2702 36.5739 14.2702C38.4699 14.2702 39.9668 15.4678 40.4658 17.264C40.4658 17.3638 40.5656 17.5635 40.7651 17.6632C41.364 18.0623 41.6633 18.6612 41.6633 19.3597C41.6633 20.4574 41.6633 21.6549 41.6633 22.7526C41.6633 22.9522 41.7631 23.2515 41.9627 23.3513C43.26 24.7485 42.6612 26.8441 40.865 27.4428C40.5656 27.5426 40.5656 27.6424 40.4658 27.842C40.1664 29.3388 39.4679 30.6362 38.2704 31.6341C38.0707 31.7339 38.0707 32.0332 37.8712 32.2329L37.971 32.3326C38.6696 32.3326 39.2683 32.3326 39.9668 32.3326C40.6654 32.3326 41.4637 32.3326 42.1623 32.3326C42.5615 32.3326 42.6612 32.2329 42.8608 31.9335C44.2579 28.6403 44.7569 25.2474 44.4575 21.7546C44.1581 18.262 42.9606 15.0686 41.0646 12.1747C40.865 11.8753 40.6654 11.7755 40.366 11.8753C39.3681 12.1747 38.4699 11.8753 37.7714 11.077C37.0729 10.2786 36.8733 9.38046 37.2725 8.38253C37.1727 8.38253 37.0729 8.18296 36.8733 7.98337C33.9793 5.68815 30.6862 4.19127 26.9939 3.59252C26.5947 3.49273 26.3951 3.59252 26.1955 3.99168C25.1976 5.78794 22.603 5.68815 21.6051 3.99168C21.4056 3.6923 21.2059 3.59252 20.9066 3.6923C19.709 3.99168 18.5115 4.29106 17.314 4.59044C17.1145 4.69023 16.7153 4.69023 16.5156 4.59044C16.3161 4.49064 16.1166 4.19127 16.2163 3.99168C16.3161 3.7921 16.5156 3.39293 16.7153 3.39293C17.9128 2.99377 19.0105 2.79418 20.208 2.4948C20.3077 2.4948 20.3077 2.4948 20.4076 2.4948C21.0064 2.4948 21.3057 2.29522 21.5053 1.69646C22.0043 0.498963 22.9024 0 24.0999 0C25.1976 0.0997925 26.0957 0.598751 26.4949 1.69646C26.6945 2.09564 26.8941 2.19543 27.2932 2.29522C31.2849 2.89397 34.7776 4.39085 37.8712 6.98544C38.1706 7.18503 38.3702 7.28482 38.7694 7.08524C39.7673 6.68607 40.9648 6.98544 41.6633 7.78378C42.3618 8.58212 42.5615 9.77961 42.0625 10.7775C41.9627 10.9771 41.8628 11.1767 42.0625 11.4761C46.5531 18.1622 47.1518 25.2474 44.1581 32.7318C44.1581 32.8316 44.0584 32.9314 44.0584 33.0312C44.2579 33.1309 44.3577 33.2308 44.5572 33.4304C45.5552 34.2286 46.0541 35.2266 46.0541 36.5239C46.0541 38.5197 46.0541 40.6154 46.0541 42.6112C46.0541 43.8087 45.4554 44.4075 44.2579 44.4075C41.8628 44.4075 39.5676 44.4075 37.1727 44.4075C36.973 44.4075 36.7735 44.4075 36.5739 44.4075C36.5739 45.0062 36.5739 45.5052 36.5739 46.0041C36.6737 47.0021 36.2745 47.6008 35.3764 48C27.6924 47.9002 20.208 47.9002 12.6238 47.9002ZM28.9897 36.5239C28.6903 39.7173 26.2954 41.4137 24.0001 41.4137C22.8026 41.4137 21.8046 41.1143 20.9066 40.316C19.6092 39.3181 19.0105 38.0207 18.9107 36.4242C17.813 36.4242 16.8151 36.4242 15.7174 36.4242C13.9211 36.4242 12.8234 37.5219 12.8234 39.3181C12.8234 41.5135 12.8234 43.7089 12.8234 45.9044C12.8234 46.3036 12.9232 46.5031 13.4222 46.5031C17.5136 46.5031 21.6051 46.5031 25.6965 46.5031C28.6903 46.5031 31.6841 46.5031 34.6778 46.5031C34.8775 46.5031 35.1768 46.6029 35.1768 46.2038C35.1768 43.8087 35.1768 41.5135 35.1768 39.1186C35.1768 37.8212 34.0791 36.6237 32.8816 36.6237C31.4845 36.4242 30.287 36.5239 28.9897 36.5239ZM28.6903 22.8524C25.497 23.9501 22.7028 22.7526 19.8089 22.0541C19.709 22.1538 19.6092 22.2536 19.6092 22.4533C19.1103 23.1518 18.9107 23.9501 18.9107 24.7485C18.9107 26.4449 18.8109 28.1414 19.0105 29.738C19.3099 32.3326 21.7049 34.2286 24.2995 34.0291C26.8941 33.8295 28.9897 31.7339 28.9897 29.1393C28.9897 27.6424 28.9897 26.1455 28.9897 24.6487C28.9897 24.0499 28.7901 23.4511 28.6903 22.8524ZM9.2309 21.3556C9.13108 21.9543 8.93149 22.4533 8.8317 22.9522C8.73191 24.449 8.73191 26.0457 8.8317 27.5426C9.03129 30.237 11.4263 32.0332 14.0209 31.6341C15.3182 31.4345 16.4159 30.6362 17.1145 29.5385C17.0146 29.5385 16.9148 29.4387 16.9148 29.4387C15.2184 28.7401 14.6196 27.1434 15.5178 25.5467C15.5178 25.447 15.6176 25.447 15.6176 25.3472C15.6176 24.3493 15.6176 23.4511 15.6176 22.4533C13.4222 22.4533 11.4263 21.9543 9.2309 21.3556ZM44.4575 42.9106C44.4575 40.6154 44.4575 38.4199 44.4575 36.2245C44.4575 35.2266 43.6592 34.2286 42.6612 34.1289C41.4637 34.0291 40.366 34.1289 39.1685 34.1289C38.8691 36.3243 38.2704 37.2225 36.3743 38.3202C36.3743 39.9168 36.3743 41.4137 36.3743 42.9106C39.1685 42.9106 41.7631 42.9106 44.4575 42.9106ZM30.786 29.4387C30.786 29.5385 30.8857 29.6383 30.8857 29.6383C31.8837 31.1352 33.8796 31.9335 35.576 31.5343C37.472 31.0354 38.8691 29.5385 38.9689 27.6424C39.0687 26.2454 39.0687 24.7485 38.9689 23.3513C38.9689 22.8524 38.7694 22.2536 38.7694 21.7546C36.4741 22.8524 34.3785 22.1538 32.183 21.7546C32.183 22.7526 32.183 23.7505 32.183 24.7485C32.183 25.0478 32.2829 25.2474 32.3826 25.447C33.0812 26.8441 32.5822 28.5406 31.0853 29.1393C30.9855 29.3388 30.8857 29.4387 30.786 29.4387ZM29.8878 16.4657C30.1872 17.1643 30.4865 17.8628 30.786 18.5613C30.8857 18.8607 30.9855 18.9605 31.1852 19.1601C31.4845 19.4595 31.7839 19.7589 32.0832 20.158C32.1831 20.2578 32.3826 20.4574 32.4824 20.5572C33.1809 20.7567 33.7797 20.9564 34.4783 20.9564C35.4762 21.0561 36.3743 21.0561 37.3722 20.9564C37.6716 20.9564 37.8712 20.5572 38.0707 20.3576C38.2704 20.158 38.4699 19.8586 38.6696 19.8586C38.8691 19.8586 39.1685 20.0582 39.3681 20.2578C39.6674 20.6569 39.8671 21.0561 40.0666 21.5551C40.0666 20.7567 40.0666 20.0582 40.0666 19.4595C40.0666 19.3597 39.8671 19.1601 39.7673 19.0603C39.2683 18.9605 39.0687 18.6612 39.0687 18.1622C38.9689 16.8648 37.971 15.8669 36.6737 15.8669C34.9773 15.8669 33.2808 15.8669 31.5843 15.8669C30.8857 15.7671 30.287 16.0665 29.8878 16.4657ZM7.73399 21.3556C7.93358 21.0561 8.13315 20.7567 8.23295 20.4574C8.63211 19.8586 8.8317 19.7589 9.53025 19.9584C10.5281 20.2578 11.5261 20.4574 12.524 20.7567C13.5219 20.9564 14.6196 21.1559 15.7174 20.9564C15.6176 19.2599 15.8171 17.6632 17.0146 16.4657C16.5156 16.0665 16.0168 15.8669 15.4179 15.8669C13.7215 15.8669 12.1248 15.8669 10.4284 15.8669C8.93149 15.8669 7.83378 16.8648 7.73399 18.3617C7.6342 19.2599 7.73399 20.3576 7.73399 21.3556ZM25.9959 35.1268C24.3993 35.526 23.9003 35.6258 21.8046 35.1268C22.1041 36.3243 21.4056 36.6237 20.4076 36.4242C20.5074 38.4199 22.1041 40.0166 24.0999 40.0166C26.0957 39.9168 27.6924 38.3202 27.5926 36.5239C27.1934 36.4242 26.6945 36.4242 26.4949 36.2245C26.0957 36.025 26.0957 35.526 25.9959 35.1268ZM11.9253 36.923C12.4242 36.4242 12.9232 36.025 13.4222 35.6258C14.2205 35.1268 15.0188 35.027 16.0168 35.027C16.2163 35.027 16.4159 34.9273 16.4159 34.8275C16.5156 34.6278 16.5156 34.3285 16.6155 33.9293C15.7174 34.0291 15.1186 33.8296 15.2184 32.7318C13.9211 33.1309 12.7235 33.1309 11.5261 32.8316C11.4263 33.2308 11.3265 33.6299 11.1269 33.8296C10.9273 34.0291 10.4284 34.0291 10.129 34.1289C10.0292 35.2266 10.8276 36.4242 11.9253 36.923ZM32.682 32.8316C32.4824 33.8296 32.4824 33.8295 31.3847 34.0291C31.2849 34.9273 31.3847 35.027 32.2829 35.027C33.3806 35.027 34.3785 35.3265 35.1768 36.1247C35.4762 36.3243 35.6758 36.6237 35.9752 36.923C37.1727 36.4242 38.0707 35.027 37.8712 34.0291C36.7735 33.9293 36.6737 34.0291 36.5739 32.8316C35.1768 33.2308 33.9793 33.1309 32.682 32.8316ZM8.33274 10.8773C9.03129 10.8773 9.63007 10.2786 9.63007 9.58008C9.63007 8.8815 9.03129 8.28275 8.43253 8.28275C7.73399 8.28275 7.13524 8.78171 7.13524 9.48025C7.03544 10.2786 7.6342 10.8773 8.33274 10.8773ZM23.9003 3.89189C24.5988 3.89189 25.1976 3.29314 25.1976 2.59459C25.1976 1.89605 24.5988 1.39709 23.9003 1.2973C23.2018 1.2973 22.603 1.89605 22.603 2.59459C22.7028 3.39293 23.2018 3.89189 23.9003 3.89189ZM39.5676 10.8773C40.2663 10.8773 40.865 10.2786 40.865 9.58008C40.865 8.8815 40.366 8.38253 39.6674 8.28275C38.9689 8.28275 38.3702 8.78171 38.3702 9.48025C38.2704 10.2786 38.8691 10.8773 39.5676 10.8773ZM20.3077 35.027C20.4076 34.4283 20.208 34.0291 19.8089 34.0291C19.21 33.9293 18.6113 34.0291 17.9128 34.0291C17.9128 34.4283 17.813 34.7276 17.813 35.027C18.7112 35.027 19.5095 35.027 20.3077 35.027ZM29.8878 34.0291C29.3888 34.0291 28.8899 34.0291 28.3909 34.0291C27.6924 34.0291 27.3931 34.3285 27.5926 35.027C28.3909 35.027 29.1893 35.027 30.0875 35.027C29.9876 34.6278 29.9876 34.3285 29.8878 34.0291ZM31.2849 32.5322C31.2849 31.6341 30.3868 31.5343 30.0875 30.9355C29.788 31.5343 29.5885 31.9335 29.2891 32.5322C29.9876 32.5322 30.5864 32.5322 31.2849 32.5322ZM18.5115 32.5322C18.2122 32.0332 18.0126 31.5343 17.7132 31.0354C17.4138 31.3347 17.2143 31.5343 16.9148 31.7339C16.6155 31.9335 16.3161 32.1331 16.5156 32.5322C17.314 32.5322 17.9128 32.5322 18.5115 32.5322ZM17.4138 28.0416C17.4138 27.2433 17.4138 26.5447 17.4138 25.7464C16.8151 25.8462 16.5156 26.2454 16.5156 26.7443C16.5156 27.3431 16.8151 27.842 17.4138 28.0416ZM30.3868 25.7464C30.3868 26.5447 30.3868 27.2433 30.3868 28.0416C30.9855 27.9418 31.2849 27.4428 31.2849 26.9439C31.3847 26.3451 30.9855 25.9459 30.3868 25.7464ZM7.43461 24.3493C6.93565 24.5489 6.73606 24.948 6.73606 25.3472C6.73606 25.7464 6.93565 26.0457 7.43461 26.2454C7.43461 25.6466 7.43461 25.0478 7.43461 24.3493ZM40.4658 26.2454C40.9648 26.0457 41.1643 25.7464 41.1643 25.2474C41.1643 24.8482 40.9648 24.5489 40.4658 24.3493C40.4658 25.0478 40.4658 25.6466 40.4658 26.2454Z" fill="black"/>
</svg>
