<svg width="48" height="48" viewBox="0 0 48 48" fill="none" xmlns="http://www.w3.org/2000/svg">
<path d="M34.7868 14.5939C33.4431 15.9376 32.0994 17.2813 30.6811 18.6996C32.3234 20.8645 32.9206 23.3279 32.3234 26.0153C31.8008 28.1055 30.6065 29.8225 28.8149 31.0169C25.3063 33.4803 20.6034 32.9578 17.692 29.8225C14.706 26.6125 14.5567 21.9096 17.3934 18.5503C19.9315 15.4897 24.8584 13.9967 29.2628 17.2066C30.6064 15.863 31.9501 14.5193 33.2938 13.1009C30.9051 11.0854 28.143 9.89096 24.8584 9.66701C24.8584 10.5628 24.8584 11.384 24.8584 12.2798C24.8584 13.0263 24.4852 13.4742 23.888 13.4742C23.2908 13.4742 22.9175 13.0263 22.9175 12.2798C22.9175 10.3389 22.9175 8.47261 22.9175 6.53171C22.9175 6.30776 22.9175 6.08381 22.9175 5.85986C21.0513 5.93451 19.2597 6.30776 17.5427 6.97961C11.5707 9.36841 7.76355 13.6981 6.1959 19.9687C6.1959 20.118 6.12125 20.1926 6.12125 20.3419C5.97195 20.8645 5.52405 21.1631 5.0015 21.0884C4.47895 20.9391 4.18035 20.4912 4.255 19.894C4.77755 17.2066 5.82265 14.7432 7.3903 12.5784C11.1228 7.57681 15.9751 4.66546 22.171 4.06826C22.395 4.06826 22.6936 3.99361 22.9922 3.99361C22.9922 3.17246 22.9922 2.27666 22.9922 1.45552C22.9922 0.559716 23.2908 0.111816 23.9626 0.111816C24.5598 0.111816 24.9331 0.559716 24.9331 1.38087C24.9331 3.32176 24.9331 5.18801 24.9331 7.12891C24.9331 7.35286 24.9331 7.57681 24.9331 7.80076C28.6656 8.09936 31.9501 9.44306 34.7122 11.8319C35.1601 11.384 35.5333 10.9361 36.0559 10.4135C35.0854 9.74166 34.1896 8.99516 33.1445 8.39796C31.5022 7.42751 29.7853 6.68101 27.9191 6.30776C27.7698 6.30776 27.6205 6.23311 27.5458 6.23311C27.0233 6.08381 26.7247 5.56126 26.874 5.03871C27.0233 4.51616 27.4712 4.21756 28.0684 4.36686C30.4572 4.81476 32.622 5.71056 34.6375 7.05426C35.608 7.72611 36.5038 8.39796 37.6235 9.21911C37.6982 8.92051 37.9221 8.69656 37.9221 8.47261C37.9221 7.42751 37.9221 6.45706 37.9221 5.41196C37.9221 5.03871 38.0714 4.59081 38.37 4.36686C39.5644 3.09781 40.8335 1.82876 42.1025 0.559716C42.4758 0.186466 42.849 0.0371665 43.2969 0.261116C43.7448 0.410416 43.8941 0.858316 43.8941 1.30622C43.8941 2.27666 43.8941 3.17246 43.8941 4.21756C44.8646 4.21756 45.835 4.21756 46.8055 4.21756C47.328 4.21756 47.7013 4.36686 47.9252 4.81476C48.0745 5.33731 47.9252 5.71056 47.552 6.00916C46.2829 7.20356 45.0885 8.47261 43.8941 9.66701C43.5955 9.96561 43.1476 10.1149 42.7744 10.1149C41.8039 10.1896 40.7588 10.1149 39.7884 10.1149C39.5644 10.1149 39.2658 10.3389 38.9672 10.4135C40.6095 12.2798 41.8039 14.146 42.6997 16.3109C43.5955 18.4757 44.0434 20.6405 44.1927 23.0293C45.0885 23.0293 45.9843 23.0293 46.8055 23.0293C47.552 23.0293 47.9999 23.4026 47.9999 23.9998C47.9999 24.597 47.552 24.9702 46.8055 24.9702C44.8646 24.9702 42.9237 24.9702 40.9828 24.9702C40.7588 24.9702 40.5349 24.9702 40.4602 24.9702C40.0123 26.6125 39.7884 28.2548 39.1912 29.7478C37.2503 34.7494 33.6671 38.034 28.5163 39.6016C28.367 39.6016 28.2923 39.6763 28.143 39.6763C27.5458 39.8256 27.0979 39.527 26.9486 39.0044C26.7993 38.4819 27.0979 38.034 27.6951 37.81C28.0684 37.6607 28.4416 37.5861 28.7402 37.4368C34.4136 35.2719 37.6235 31.0915 38.2954 25.1195C38.2954 25.0449 38.2954 25.0449 38.2954 24.8956C37.4742 24.8956 36.5784 24.8956 35.7573 24.8956C35.0108 24.8956 34.5629 24.5223 34.5629 23.9251C34.5629 23.3279 35.0108 22.9547 35.7573 22.9547C37.6982 22.9547 39.5644 22.9547 41.5053 22.9547C41.7293 22.9547 41.9532 22.9547 42.1772 22.9547C41.8786 18.6996 40.3856 14.9672 37.6235 11.8319C37.1756 12.2798 36.7277 12.7277 36.2798 13.1756C36.3545 13.2502 36.4291 13.3995 36.5784 13.5488C37.9968 15.2658 39.0419 17.2067 39.6391 19.3715C39.9377 20.2673 39.7137 20.7898 39.1165 21.0138C38.5193 21.1631 38.0714 20.7898 37.8475 19.9687C37.101 18.0278 36.1305 16.2362 34.7868 14.5939ZM27.8444 18.6996C25.6049 16.8334 21.7231 16.6841 19.1104 19.3715C16.5723 22.0589 16.5723 26.0153 19.185 28.6281C21.7978 31.2408 25.8289 31.3155 28.4416 28.7774C31.129 26.2393 31.129 22.3575 29.1881 19.9687C28.8149 20.3419 28.5163 20.6405 28.143 21.0138C27.8444 21.2377 27.9191 21.4617 28.0684 21.7603C28.5909 22.8054 28.8149 23.8505 28.5163 24.9702C27.9191 27.583 25.2317 29.2253 22.6936 28.5534C20.0808 27.8816 18.5132 25.1195 19.2597 22.5814C20.0808 19.9687 22.8429 18.401 25.3063 19.4461C26.3514 19.894 26.9486 19.5954 27.4712 18.8489C27.6951 18.8489 27.7698 18.7743 27.8444 18.6996ZM26.5007 22.7307C25.8289 23.4026 25.2317 24.0744 24.6345 24.6716C24.2612 25.0449 23.7387 25.0449 23.3654 24.6716C22.9922 24.2984 22.9175 23.8505 23.2161 23.4026C23.3654 23.2533 23.5147 23.104 23.664 22.9547C24.1866 22.4321 24.7091 21.9096 25.2317 21.387C23.8133 20.7898 22.395 21.2377 21.6485 22.3575C20.902 23.4772 21.0513 24.9702 22.0217 25.9407C22.9922 26.9111 24.4105 27.0604 25.6049 26.3139C26.65 25.5674 27.0979 24.1491 26.5007 22.7307ZM39.7884 8.17401C40.6095 8.17401 41.356 8.17401 42.1025 8.17401C42.2518 8.17401 42.4758 8.17401 42.5504 8.09936C43.1476 7.50216 43.8195 6.83031 44.566 6.08381C43.8941 6.08381 43.3716 6.08381 42.9237 6.08381C42.2518 6.08381 41.8786 5.71056 41.8786 5.03871C41.8786 4.51616 41.8786 3.99361 41.8786 3.32176C41.1321 4.06826 40.5349 4.66546 39.9377 5.26266C39.863 5.33731 39.7884 5.48661 39.7884 5.63591C39.7137 6.53171 39.7884 7.27821 39.7884 8.17401Z" fill="black"/>
<path d="M3.80714 24.9705C2.98599 24.9705 2.09019 24.9705 1.19439 24.9705C0.4479 24.9705 0 24.5973 0 24.0001C0 23.4029 0.4479 23.1043 1.11974 23.0296C3.28459 23.0296 5.37479 23.0296 7.53964 23.0296C7.83824 21.7606 7.98755 20.5662 8.3608 19.3718C8.6594 18.4013 9.1073 17.4309 9.48055 16.5351C9.77915 15.9379 10.3017 15.7139 10.8242 16.0125C11.3468 16.3111 11.4961 16.8337 11.1228 17.4309C10.227 19.2225 9.62984 21.0887 9.55519 23.1043C10.3763 23.1043 11.1228 23.1043 11.944 23.1043C12.8398 23.1043 13.2877 23.4029 13.3623 24.0747C13.3623 24.7466 12.9144 25.0452 11.944 25.0452C10.0777 25.0452 8.28614 25.0452 6.41989 25.0452C6.19594 25.0452 5.97199 25.0452 5.74804 25.0452C5.82269 26.6128 6.04664 28.1058 6.56919 29.5242C8.80869 36.0187 13.213 40.1245 19.8569 41.7668C20.0808 41.8414 20.3794 41.9161 20.6034 42.0654C20.9766 42.364 21.1259 42.7372 20.902 43.1851C20.678 43.633 20.3048 43.857 19.7822 43.7823C17.4681 43.2598 15.2286 42.4386 13.213 41.1696C7.83825 37.4371 4.70294 32.3609 3.95644 25.7917C3.95644 25.5677 3.88179 25.3438 3.88179 25.1198C3.88179 25.1198 3.88179 25.0452 3.80714 24.9705Z" fill="black"/>
<path d="M24.933 44.0805C24.933 44.9762 24.933 45.7974 24.933 46.6932C24.933 47.4397 24.5598 47.8876 23.9626 47.8876C23.3654 47.8876 22.9921 47.4397 22.9921 46.6932C22.9921 44.7523 22.9921 42.8114 22.9921 40.8705C22.9921 40.6466 22.9921 40.4226 22.9921 40.2733C22.0217 40.124 21.1259 39.9747 20.2301 39.7508C14.1834 38.1831 10.227 34.4506 8.36074 28.4786C8.28609 28.2547 8.21143 28.1054 8.21143 27.8814C8.21143 27.3589 8.43539 27.0603 8.88328 26.911C9.33118 26.7617 9.77908 26.911 10.003 27.3589C10.0777 27.5828 10.1523 27.8068 10.227 28.0307C11.8693 33.7041 17.1694 38.0338 22.9921 38.2578C22.9921 37.4366 22.9921 36.5408 22.9921 35.7197C22.9921 34.9732 23.3654 34.5253 23.8879 34.5253C24.4851 34.5253 24.8584 34.9732 24.8584 35.7197C24.8584 37.5859 24.8584 39.5268 24.8584 41.3931C24.8584 41.617 24.8584 41.841 24.8584 42.2142C26.0528 41.9903 27.2472 41.841 28.3669 41.617C30.3825 41.1691 32.1741 40.348 33.891 39.2282C34.0403 39.1536 34.1896 39.0043 34.3389 38.9296C34.7868 38.7803 35.1601 38.855 35.4587 39.2282C35.7573 39.6015 35.6826 40.0494 35.384 40.348C35.2347 40.4973 35.0108 40.6466 34.7868 40.7959C31.8755 42.6621 28.6655 43.7072 25.2316 44.0058C25.2316 44.0058 25.0823 44.0805 24.933 44.0805Z" fill="black"/>
<path d="M40.2369 35.2714C39.2664 35.2714 38.8932 34.5249 39.2664 33.7038C39.9383 32.3601 40.6101 30.9418 41.2073 29.5235C41.4313 28.9263 41.5806 28.2544 41.7299 27.6572C41.8792 27.06 42.3271 26.7613 42.8496 26.836C43.3722 26.9853 43.6708 27.4332 43.5961 28.105C43.1482 30.4938 42.2524 32.6587 40.9087 34.6742C40.6848 34.9728 40.3862 35.1968 40.2369 35.2714Z" fill="black"/>
<path d="M15.3783 12.28C15.1544 12.0561 14.7811 11.8321 14.6318 11.4589C14.4079 11.011 14.7065 10.6377 15.0797 10.3391C16.4981 9.44331 18.0657 8.69682 19.708 8.32357C20.2306 8.17427 20.6038 8.32357 20.8278 8.77146C21.1264 9.29401 20.9024 9.96586 20.3052 10.1898C18.7376 10.6377 17.3192 11.2349 15.9755 12.1307C15.9009 12.1307 15.7516 12.1307 15.3783 12.28Z" fill="black"/>
<path d="M13.6614 13.698C13.6614 14.2205 13.2135 14.5938 12.691 14.5938C12.1684 14.5938 11.7952 14.1459 11.7952 13.6233C11.7952 13.1008 12.2431 12.7275 12.7656 12.7275C13.2135 12.7275 13.6614 13.1754 13.6614 13.698Z" fill="black"/>
<path d="M38.5942 37.2879C38.5942 37.8104 38.1463 38.2583 37.6238 38.2583C37.1012 38.2583 36.6533 37.8851 36.6533 37.3625C36.6533 36.84 37.0266 36.3921 37.5491 36.3921C38.1463 36.3921 38.5942 36.7653 38.5942 37.2879Z" fill="black"/>
</svg>
