<svg width="48" height="48" viewBox="0 0 48 48" fill="none" xmlns="http://www.w3.org/2000/svg">
<path d="M23.9999 9C21.0352 9.00138 18.1374 9.88171 15.6729 11.5297C13.2084 13.1777 11.2878 15.5193 10.1539 18.2587C9.01994 20.998 8.72362 24.012 9.30235 26.9197C9.88108 29.8274 11.3089 32.4983 13.4053 34.5947C15.5017 36.691 18.1725 38.1188 21.0802 38.6976C23.9879 39.2763 27.0019 38.98 29.7413 37.8461C32.4806 36.7121 34.8222 34.7915 36.4702 32.327C38.1182 29.8625 38.9985 26.9647 38.9999 24C38.9954 20.0231 37.4136 16.2104 34.6016 13.3984C31.7895 10.5863 27.9768 9.0045 23.9999 9V9ZM29.9999 35.517V33C29.9999 32.7348 29.8946 32.4804 29.707 32.2929C29.5195 32.1054 29.2651 32 28.9999 32C28.7347 32 28.4804 32.1054 28.2928 32.2929C28.1053 32.4804 27.9999 32.7348 27.9999 33V36.354C25.4028 37.2153 22.597 37.2153 19.9999 36.354V33C19.9999 32.7348 19.8946 32.4804 19.707 32.2929C19.5195 32.1054 19.2651 32 18.9999 32C18.7347 32 18.4804 32.1054 18.2928 32.2929C18.1053 32.4804 17.9999 32.7348 17.9999 33V35.517C17.2803 35.1405 16.5976 34.6973 15.9609 34.193C15.9804 34.1302 15.9935 34.0655 15.9999 34V31C15.9999 30.2044 16.316 29.4413 16.8786 28.8787C17.4412 28.3161 18.2043 28 18.9999 28H20.5859L23.2929 30.707C23.4804 30.8945 23.7348 30.9998 23.9999 30.9998C24.2651 30.9998 24.5194 30.8945 24.7069 30.707L27.4139 28H28.9999C29.7956 28 30.5586 28.3161 31.1212 28.8787C31.6839 29.4413 31.9999 30.2044 31.9999 31V34C32.0064 34.0655 32.0194 34.1302 32.0389 34.193C31.4023 34.6973 30.7196 35.1405 29.9999 35.517V35.517ZM33.9999 32.271V31C33.9983 29.6744 33.471 28.4036 32.5337 27.4662C31.5964 26.5289 30.3255 26.0016 28.9999 26H26.9999C26.7347 26.0001 26.4804 26.1054 26.2929 26.293L23.9999 28.586L21.7069 26.293C21.5194 26.1054 21.2651 26.0001 20.9999 26H18.9999C17.6743 26.0016 16.4035 26.5289 15.4661 27.4662C14.5288 28.4036 14.0015 29.6744 13.9999 31V32.272C12.4222 30.3727 11.4181 28.0633 11.1049 25.6141C10.7917 23.165 11.1826 20.6772 12.2316 18.4421C13.2807 16.2069 14.9446 14.3167 17.0287 12.9926C19.1127 11.6685 21.5308 10.9654 23.9999 10.9654C26.469 10.9654 28.8871 11.6685 30.9712 12.9926C33.0553 14.3167 34.7192 16.2069 35.7682 18.4421C36.8173 20.6772 37.2081 23.165 36.8949 25.6141C36.5818 28.0633 35.5776 30.3727 33.9999 32.272V32.271Z" fill="black"/>
<path d="M24 14C23.0111 14 22.0444 14.2932 21.2222 14.8427C20.3999 15.3921 19.759 16.173 19.3806 17.0866C19.0022 18.0002 18.9031 19.0055 19.0961 19.9755C19.289 20.9454 19.7652 21.8363 20.4645 22.5355C21.1637 23.2348 22.0546 23.711 23.0246 23.9039C23.9945 24.0969 24.9998 23.9978 25.9134 23.6194C26.8271 23.241 27.6079 22.6001 28.1574 21.7779C28.7068 20.9556 29 19.9889 29 19C28.9984 17.6744 28.4711 16.4036 27.5338 15.4662C26.5964 14.5289 25.3256 14.0016 24 14ZM24 22C23.4067 22 22.8266 21.8241 22.3333 21.4944C21.8399 21.1648 21.4554 20.6962 21.2284 20.1481C21.0013 19.5999 20.9419 18.9967 21.0576 18.4147C21.1734 17.8328 21.4591 17.2982 21.8787 16.8787C22.2982 16.4591 22.8328 16.1734 23.4147 16.0576C23.9967 15.9419 24.5999 16.0013 25.1481 16.2284C25.6962 16.4554 26.1648 16.8399 26.4944 17.3333C26.8241 17.8266 27 18.4067 27 19C27 19.7956 26.6839 20.5587 26.1213 21.1213C25.5587 21.6839 24.7957 22 24 22Z" fill="black"/>
<path d="M47 23H44.949C44.696 17.7909 42.513 12.8624 38.8253 9.1747C35.1376 5.48696 30.2091 3.30398 25 3.051V1C25 0.734784 24.8946 0.48043 24.7071 0.292893C24.5196 0.105357 24.2652 0 24 0C23.7348 0 23.4804 0.105357 23.2929 0.292893C23.1054 0.48043 23 0.734784 23 1V3.051C17.7909 3.30398 12.8624 5.48696 9.1747 9.1747C5.48696 12.8624 3.30398 17.7909 3.051 23H1C0.734784 23 0.48043 23.1054 0.292893 23.2929C0.105357 23.4804 0 23.7348 0 24C0 24.2652 0.105357 24.5196 0.292893 24.7071C0.48043 24.8946 0.734784 25 1 25H3.051C3.30398 30.2091 5.48696 35.1376 9.1747 38.8253C12.8624 42.513 17.7909 44.696 23 44.949V47C23 47.2652 23.1054 47.5196 23.2929 47.7071C23.4804 47.8946 23.7348 48 24 48C24.2652 48 24.5196 47.8946 24.7071 47.7071C24.8946 47.5196 25 47.2652 25 47V44.949C30.2091 44.696 35.1376 42.513 38.8253 38.8253C42.513 35.1376 44.696 30.2091 44.949 25H47C47.2652 25 47.5196 24.8946 47.7071 24.7071C47.8946 24.5196 48 24.2652 48 24C48 23.7348 47.8946 23.4804 47.7071 23.2929C47.5196 23.1054 47.2652 23 47 23ZM42 25H42.949C42.6982 29.679 40.7266 34.1 37.4133 37.4133C34.1 40.7266 29.679 42.6982 25 42.949V42C25 41.7348 24.8946 41.4804 24.7071 41.2929C24.5196 41.1054 24.2652 41 24 41C23.7348 41 23.4804 41.1054 23.2929 41.2929C23.1054 41.4804 23 41.7348 23 42V42.949C18.321 42.6982 13.9 40.7266 10.5867 37.4133C7.27342 34.1 5.30184 29.679 5.051 25H6C6.26522 25 6.51957 24.8946 6.70711 24.7071C6.89464 24.5196 7 24.2652 7 24C7 23.7348 6.89464 23.4804 6.70711 23.2929C6.51957 23.1054 6.26522 23 6 23H5.051C5.30184 18.321 7.27342 13.9 10.5867 10.5867C13.9 7.27342 18.321 5.30184 23 5.051V6C23 6.26522 23.1054 6.51957 23.2929 6.70711C23.4804 6.89464 23.7348 7 24 7C24.2652 7 24.5196 6.89464 24.7071 6.70711C24.8946 6.51957 25 6.26522 25 6V5.051C29.679 5.30184 34.1 7.27342 37.4133 10.5867C40.7266 13.9 42.6982 18.321 42.949 23H42C41.7348 23 41.4804 23.1054 41.2929 23.2929C41.1054 23.4804 41 23.7348 41 24C41 24.2652 41.1054 24.5196 41.2929 24.7071C41.4804 24.8946 41.7348 25 42 25Z" fill="black"/>
<path d="M16 21H15C14.7348 21 14.4804 21.1054 14.2929 21.2929C14.1054 21.4804 14 21.7348 14 22C14 22.2652 14.1054 22.5196 14.2929 22.7071C14.4804 22.8946 14.7348 23 15 23H16C16.2652 23 16.5196 22.8946 16.7071 22.7071C16.8946 22.5196 17 22.2652 17 22C17 21.7348 16.8946 21.4804 16.7071 21.2929C16.5196 21.1054 16.2652 21 16 21Z" fill="black"/>
<path d="M32 21C31.7348 21 31.4804 21.1054 31.2929 21.2929C31.1054 21.4804 31 21.7348 31 22C31 22.2652 31.1054 22.5196 31.2929 22.7071C31.4804 22.8946 31.7348 23 32 23H33C33.2652 23 33.5196 22.8946 33.7071 22.7071C33.8946 22.5196 34 22.2652 34 22C34 21.7348 33.8946 21.4804 33.7071 21.2929C33.5196 21.1054 33.2652 21 33 21H32Z" fill="black"/>
</svg>
