<svg width="242" height="60" viewBox="0 0 242 60" fill="none" xmlns="http://www.w3.org/2000/svg">
<path d="M86.8516 38.2868C86.0867 38.2868 85.2051 38.17 84.2065 37.9363L81.0516 37.0758L81.9121 34.4945C83.6967 35.1319 85.1838 35.4506 86.3736 35.4506C87.0109 35.4506 87.542 35.3019 87.9669 35.0044C88.3918 34.707 88.6043 34.3033 88.6043 33.7935C88.6043 33.2836 88.4662 32.9012 88.19 32.6462C87.9138 32.3913 87.4039 32.1682 86.6604 31.977L84.9395 31.5308C82.56 30.9147 81.3703 29.5126 81.3703 27.3243C81.3703 26.0071 81.8696 24.9236 82.8681 24.0738C83.8879 23.224 85.2157 22.7991 86.8516 22.7991C87.5102 22.7991 88.2856 22.9159 89.1779 23.1496L92.3328 24.01L91.4724 26.5913C89.7515 25.954 88.445 25.6353 87.5527 25.6353C86.9578 25.6353 86.4585 25.7946 86.0549 26.1133C85.6512 26.4108 85.4494 26.8038 85.4494 27.2924C85.4494 27.8023 85.5875 28.1847 85.8637 28.4397C86.1399 28.6946 86.6497 28.9177 87.3933 29.1089L89.0823 29.555C90.357 29.895 91.2706 30.4155 91.8229 31.1166C92.3753 31.7964 92.6515 32.6781 92.6515 33.7616C92.6515 35.0575 92.1629 36.141 91.1856 37.0121C90.2083 37.8619 88.7636 38.2868 86.8516 38.2868ZM100.481 38.2868C98.8876 38.2868 97.7616 37.8938 97.103 37.1077C96.4657 36.3216 96.147 35.1213 96.147 33.5066V25.8902H93.7888V23.0859H96.147V19.3574L100.194 18.5607V23.0859H103.7V25.8902H100.194V33.5704C100.194 34.8238 100.704 35.4506 101.724 35.4506C102.34 35.4506 102.999 35.2594 103.7 34.877L104.337 37.267C103.169 37.9469 101.883 38.2868 100.481 38.2868ZM110.404 38.2868C108.959 38.2868 107.812 37.8407 106.962 36.9484C106.112 36.0561 105.687 34.9938 105.687 33.7616C105.687 32.848 105.985 32.1151 106.58 31.5627C107.196 30.9891 108.152 30.5429 109.448 30.2243L114.579 28.9496V27.643C114.579 27.0269 114.387 26.5382 114.005 26.1771C113.644 25.8159 113.134 25.6353 112.475 25.6353C111.732 25.6353 110.053 26.1983 107.44 27.3243L106.325 24.743L109.958 23.4046C111.062 23.0009 111.87 22.7991 112.38 22.7991C114.313 22.7991 115.832 23.309 116.937 24.3287C118.063 25.3273 118.626 26.6445 118.626 28.2803V33.7616C118.626 34.1652 118.689 34.7707 118.817 35.578C118.966 36.3641 119.157 37.0333 119.391 37.5857L115.917 38.2868C115.492 37.8194 115.046 37.1714 114.579 36.3429C113.155 37.6388 111.764 38.2868 110.404 38.2868ZM111.838 35.4506C112.666 35.4506 113.58 34.9726 114.579 34.0165V30.7979L111.392 31.722C110.372 32.0195 109.862 32.5825 109.862 33.411C109.862 34.0484 110.043 34.5477 110.404 34.9088C110.765 35.27 111.243 35.4506 111.838 35.4506ZM127.043 38.2868C125.45 38.2868 124.324 37.8938 123.665 37.1077C123.028 36.3216 122.709 35.1213 122.709 33.5066V25.8902H120.351V23.0859H122.709V19.3574L126.756 18.5607V23.0859H130.262V25.8902H126.756V33.5704C126.756 34.8238 127.266 35.4506 128.286 35.4506C128.902 35.4506 129.561 35.2594 130.262 34.877L130.899 37.267C129.731 37.9469 128.445 38.2868 127.043 38.2868ZM172.052 38H168.005V29.3001C168.005 28.0254 167.814 27.1012 167.431 26.5276C167.07 25.9327 166.486 25.6353 165.679 25.6353C164.871 25.6353 164 26.1133 163.066 27.0694V38H159.018V29.3001C159.018 28.0254 158.838 27.1012 158.477 26.5276C158.115 25.9327 157.521 25.6353 156.692 25.6353C155.906 25.6353 155.035 26.1133 154.079 27.0694V38H150.032V27.3243C150.032 26.9206 149.957 26.3258 149.809 25.5397C149.681 24.7324 149.501 24.0525 149.267 23.5002L152.709 22.7991C153.155 23.2452 153.611 23.8932 154.079 24.743C155.417 23.4471 156.809 22.7991 158.254 22.7991C160.399 22.7991 161.855 23.5533 162.619 25.0617C163.087 24.4456 163.756 23.9144 164.627 23.4683C165.498 23.0221 166.369 22.7991 167.24 22.7991C168.855 22.7991 170.055 23.2665 170.841 24.2013C171.649 25.136 172.052 26.5913 172.052 28.5671V38ZM179.4 38.2868C177.955 38.2868 176.808 37.8407 175.958 36.9484C175.109 36.0561 174.684 34.9938 174.684 33.7616C174.684 32.848 174.981 32.1151 175.576 31.5627C176.192 30.9891 177.148 30.5429 178.444 30.2243L183.575 28.9496V27.643C183.575 27.0269 183.384 26.5382 183.001 26.1771C182.64 25.8159 182.13 25.6353 181.471 25.6353C180.728 25.6353 179.05 26.1983 176.436 27.3243L175.321 24.743L178.954 23.4046C180.059 23.0009 180.866 22.7991 181.376 22.7991C183.309 22.7991 184.828 23.309 185.933 24.3287C187.059 25.3273 187.622 26.6445 187.622 28.2803V33.7616C187.622 34.1652 187.686 34.7707 187.813 35.578C187.962 36.3641 188.153 37.0333 188.387 37.5857L184.913 38.2868C184.488 37.8194 184.042 37.1714 183.575 36.3429C182.151 37.6388 180.76 38.2868 179.4 38.2868ZM180.834 35.4506C181.663 35.4506 182.576 34.9726 183.575 34.0165V30.7979L180.388 31.722C179.368 32.0195 178.858 32.5825 178.858 33.411C178.858 34.0484 179.039 34.5477 179.4 34.9088C179.761 35.27 180.239 35.4506 180.834 35.4506ZM195.299 38H191.252V27.3243C191.252 26.9206 191.178 26.3258 191.029 25.5397C190.901 24.7324 190.721 24.0525 190.487 23.5002L193.929 22.7991C194.587 23.4577 195.044 24.35 195.299 25.476C195.724 24.6262 196.287 23.9676 196.988 23.5002C197.71 23.0328 198.486 22.7991 199.314 22.7991C199.782 22.7991 200.207 22.8734 200.589 23.0221L199.888 26.4957H198.836C197.838 26.4957 197.052 26.7401 196.478 27.2287C195.926 27.6961 195.533 28.4822 195.299 29.5869V38ZM216.344 38H211.372L206.433 30.288V38H202.386V16.7123L206.433 15.9156V29.1726L211.468 23.0859H216.025L210.034 29.7462L216.344 38ZM223.598 38.2868C221.197 38.2868 219.381 37.5751 218.149 36.1517C216.938 34.707 216.332 32.8162 216.332 30.4792C216.332 28.1422 216.959 26.2833 218.212 24.9023C219.466 23.5002 221.208 22.7991 223.439 22.7991C227.751 22.7991 229.908 25.0404 229.908 29.5232C229.908 29.9906 229.855 30.3836 229.748 30.7023H220.507C220.507 32.2957 220.794 33.4854 221.367 34.2715C221.962 35.0575 222.78 35.4506 223.821 35.4506C224.989 35.4506 226.519 35.0257 228.41 34.1759L229.525 36.7572L226.147 38C225.574 38.1912 224.724 38.2868 223.598 38.2868ZM223.215 25.6353C222.366 25.6353 221.696 25.9327 221.208 26.5276C220.74 27.1225 220.507 27.866 220.507 28.7583H225.701C225.701 26.6763 224.873 25.6353 223.215 25.6353ZM237.844 38.2868C236.25 38.2868 235.124 37.8938 234.466 37.1077C233.828 36.3216 233.51 35.1213 233.51 33.5066V25.8902H231.151V23.0859H233.51V19.3574L237.557 18.5607V23.0859H241.062V25.8902H237.557V33.5704C237.557 34.8238 238.067 35.4506 239.086 35.4506C239.702 35.4506 240.361 35.2594 241.062 34.877L241.7 37.267C240.531 37.9469 239.246 38.2868 237.844 38.2868Z" fill="#54618E"/>
<path d="M145.411 38H141.555V33.0924H132.855L131.995 30.6067L141.077 17.6046H145.411V30.0968H147.451V33.0924H145.411V38ZM141.555 30.0968V21.8112L135.914 30.0968H141.555Z" fill="#D653D2"/>
<mask id="mask0_1_3622" style="mask-type:alpha" maskUnits="userSpaceOnUse" x="0" y="0" width="60" height="60">
<circle cx="30" cy="30" r="30" fill="url(#paint0_linear_1_3622)"/>
</mask>
<g mask="url(#mask0_1_3622)">
<circle cx="30" cy="30" r="30" fill="url(#paint1_linear_1_3622)"/>
<path d="M40.3002 38.2301V4.76217C40.3002 4.25029 40.3154 3.69325 40.3456 3.09104C40.4061 2.48883 40.4666 1.87156 40.5271 1.23923L12.7634 38.2301H40.3002ZM66 38.2301V40.5787C66 40.9099 65.8941 41.1809 65.6824 41.3917C65.501 41.5723 65.1985 41.6627 64.7751 41.6627H44.1109V60H40.3002V41.6627H9.95072C9.49706 41.6627 9.14926 41.5723 8.90731 41.3917C8.66536 41.1809 8.49902 40.9099 8.40829 40.5787L8 38.4559L40.2549 -4H44.1109V38.2301H66Z" fill="white"/>
</g>
<defs>
<linearGradient id="paint0_linear_1_3622" x1="69" y1="-18" x2="17.25" y2="60" gradientUnits="userSpaceOnUse">
<stop stop-color="#FF00AA"/>
<stop offset="1" stop-color="#8912DE"/>
</linearGradient>
<linearGradient id="paint1_linear_1_3622" x1="69" y1="-18" x2="17.25" y2="60" gradientUnits="userSpaceOnUse">
<stop stop-color="#FF00AA"/>
<stop offset="1" stop-color="#8912DE"/>
</linearGradient>
</defs>
</svg>
