<svg width="48" height="48" viewBox="0 0 48 48" fill="none" xmlns="http://www.w3.org/2000/svg">
<path d="M32.0021 34.1093L36.1354 29.976C36.6919 29.4262 37.3963 29.0498 38.1629 28.8927C38.9292 28.7353 39.725 28.8041 40.4532 29.0902L45.4904 31.1016C46.2263 31.4002 46.8573 31.9101 47.304 32.5669C47.7505 33.2235 47.9928 33.9977 48 34.792V44.0181C47.9956 44.5582 47.882 45.0922 47.6661 45.5873C47.4501 46.0824 47.1362 46.5289 46.7432 46.8994C46.3499 47.2701 45.886 47.5575 45.3789 47.744C44.872 47.9305 44.3324 48.0127 43.793 47.9853C8.49407 45.7894 1.37157 15.8971 0.0245762 4.45678C-0.037958 3.89499 0.0191775 3.32633 0.192195 2.78818C0.365239 2.25004 0.65025 1.75466 1.0285 1.33457C1.40672 0.914514 1.86962 0.579276 2.38672 0.350964C2.90383 0.122628 3.46342 0.00636168 4.02868 0.00984149H12.941C13.7363 0.0121955 14.5127 0.25243 15.1704 0.699636C15.8281 1.14684 16.3369 1.78058 16.6314 2.51932L18.6427 7.55675C18.9385 8.28203 19.014 9.07837 18.8596 9.84631C18.7054 10.6142 18.3283 11.3197 17.7755 11.8745L13.6422 16.0078C13.6422 16.0078 16.0225 32.1163 32.0021 34.1093Z" fill="black"/>
</svg>
