<svg width="48" height="48" viewBox="0 0 48 48" fill="none" xmlns="http://www.w3.org/2000/svg">
<path d="M3.20011 40.4006H24.8008V42.8007C24.8008 44.1257 25.8759 45.2008 27.2009 45.2008H30.401C31.1011 45.2008 31.7636 44.8883 32.2136 44.3632C32.2261 44.3632 32.2386 44.3632 32.2511 44.3507C32.8386 44.9008 33.6012 45.2008 34.4012 45.2008H44.0015C45.3266 45.2008 46.4016 44.1257 46.4016 42.8007C46.4016 42.3882 46.2891 41.9757 46.0766 41.6257C47.1641 40.9506 47.5266 39.5381 46.8766 38.4255C47.4766 38.0505 47.8766 37.4255 47.9766 36.7255C48.0766 36.0255 47.8516 35.3129 47.3766 34.8004C48.0141 34.1004 48.1766 33.0879 47.7891 32.2253C47.4016 31.3628 46.5391 30.8003 45.5891 30.8003H43.189V5.99943C43.189 4.23687 41.7514 2.79932 39.9889 2.79932H3.20011C1.43755 2.79932 0 4.23687 0 5.99943V37.2005C0 38.9631 1.43755 40.4006 3.20011 40.4006ZM30.401 43.6007H27.2009C26.7634 43.6007 26.4009 43.2382 26.4009 42.8007V35.6004C26.4009 35.1629 26.7634 34.8004 27.2009 34.8004H30.401C30.8386 34.8004 31.2011 35.1629 31.2011 35.6004V42.8007C31.2011 43.2382 30.8386 43.6007 30.401 43.6007ZM46.4016 33.2004C46.4016 33.6379 46.0391 34.0004 45.6016 34.0004H43.2015C42.764 34.0004 42.4015 34.3629 42.4015 34.8004C42.4015 35.2379 42.764 35.6004 43.2015 35.6004H45.6016C46.0391 35.6004 46.4016 35.963 46.4016 36.4005C46.4016 36.838 46.0391 37.2005 45.6016 37.2005H43.2015C42.764 37.2005 42.4015 37.563 42.4015 38.0005C42.4015 38.438 42.764 38.8006 43.2015 38.8006H44.8015C45.239 38.8006 45.6016 39.1631 45.6016 39.6006C45.6016 40.0381 45.239 40.4006 44.8015 40.4006H43.2015C42.764 40.4006 42.4015 40.7631 42.4015 41.2006C42.4015 41.6382 42.764 42.0007 43.2015 42.0007H44.0015C44.439 42.0007 44.8015 42.3632 44.8015 42.8007C44.8015 43.2382 44.439 43.6007 44.0015 43.6007H34.4012C33.5136 43.6007 32.8011 42.8882 32.8011 42.0007V35.2629C33.8012 34.6379 34.5512 33.6754 34.9262 32.5628C35.6387 30.4253 36.0012 28.1877 36.0012 25.9376C36.0012 25.8251 36.0762 25.7376 36.1762 25.7001C36.4512 25.6501 37.1638 25.5251 37.8388 26.8501C38.2138 27.6127 38.4013 28.4502 38.3888 29.3127V31.6003C38.3888 32.0378 38.7513 32.4003 39.1888 32.4003H45.5891C46.0391 32.4003 46.4016 32.7628 46.4016 33.2004ZM40.0014 30.8003V29.3127C40.0139 28.2127 39.7639 27.1127 39.2763 26.1251C38.4888 24.5876 37.2888 23.875 35.9012 24.125C35.0262 24.2876 34.4012 25.0501 34.4012 25.9376C34.4012 28.0127 34.0637 30.0878 33.4136 32.0628C33.1636 32.8003 32.6761 33.4254 32.0261 33.8629C31.5886 33.4504 31.0011 33.2254 30.401 33.2129H27.2009C25.8759 33.2129 24.8008 34.2879 24.8008 35.6129V38.8131H3.20011C2.31258 38.8131 1.60005 38.1005 1.60005 37.213V10.7996H41.6014V30.8003H40.0014ZM3.20011 4.39937H40.0014C40.8889 4.39937 41.6014 5.1119 41.6014 5.99943V9.19954H1.60005V5.99943C1.60005 5.1119 2.31258 4.39937 3.20011 4.39937Z" fill="black"/>
<path fill-rule="evenodd" clip-rule="evenodd" d="M4.79922 6.79806C4.79922 7.23556 4.43672 7.59806 3.99922 7.59806C3.56172 7.59806 3.19922 7.23556 3.19922 6.79806C3.19922 6.36056 3.56172 5.99805 3.99922 5.99805C4.43672 5.99805 4.79922 6.36056 4.79922 6.79806Z" fill="black"/>
<path fill-rule="evenodd" clip-rule="evenodd" d="M8.00063 6.79806C8.00063 7.23556 7.63813 7.59806 7.20063 7.59806C6.76313 7.59806 6.40063 7.23556 6.40063 6.79806C6.40063 6.36056 6.76313 5.99805 7.20063 5.99805C7.63813 5.99805 8.00063 6.36056 8.00063 6.79806Z" fill="black"/>
<path fill-rule="evenodd" clip-rule="evenodd" d="M11.1998 6.79806C11.1998 7.23556 10.8373 7.59806 10.3998 7.59806C9.96235 7.59806 9.59985 7.23556 9.59985 6.79806C9.59985 6.36056 9.96235 5.99805 10.3998 5.99805C10.8373 5.99805 11.1998 6.36056 11.1998 6.79806Z" fill="black"/>
<path d="M6.40024 27.6002H19.2002C20.5252 27.6002 21.6002 26.5252 21.6002 25.2002V15.6002C21.6002 14.2752 20.5252 13.2002 19.2002 13.2002H6.40024C5.07524 13.2002 4.00024 14.2752 4.00024 15.6002V25.2002C4.00024 26.5252 5.07524 27.6002 6.40024 27.6002ZM8.36274 26.0002L12.0627 20.1752L13.8377 22.4002L11.5627 26.0002H8.36274ZM19.2002 26.0002H13.4627L17.6752 19.3752L20.0002 22.2877V25.2127C20.0002 25.6377 19.6377 26.0002 19.2002 26.0002ZM5.60024 15.6002C5.60024 15.1627 5.96274 14.8002 6.40024 14.8002H19.2002C19.6377 14.8002 20.0002 15.1627 20.0002 15.6002V19.7252L18.2252 17.5002C18.0627 17.3002 17.8127 17.1877 17.5627 17.2002C17.3002 17.2127 17.0752 17.3502 16.9252 17.5752L14.7627 20.9752L12.6252 18.3002C12.4627 18.1002 12.2127 17.9877 11.9627 18.0002C11.7002 18.0127 11.4752 18.1502 11.3252 18.3752L6.47524 26.0002H6.40024C5.96274 26.0002 5.60024 25.6377 5.60024 25.2002V15.6002Z" fill="black"/>
<path fill-rule="evenodd" clip-rule="evenodd" d="M8.79946 17.1994C8.79946 17.6369 8.43696 17.9994 7.99946 17.9994C7.56196 17.9994 7.19946 17.6369 7.19946 17.1994C7.19946 16.7619 7.56196 16.3994 7.99946 16.3994C8.43696 16.3994 8.79946 16.7619 8.79946 17.1994Z" fill="black"/>
<path fill-rule="evenodd" clip-rule="evenodd" d="M38.4007 13.999H24.8007C24.3632 13.999 24.0007 14.3615 24.0007 14.799C24.0007 15.2365 24.3632 15.599 24.8007 15.599H38.4007C38.8382 15.599 39.2007 15.2365 39.2007 14.799C39.2007 14.3615 38.8382 13.999 38.4007 13.999Z" fill="black"/>
<path fill-rule="evenodd" clip-rule="evenodd" d="M38.4007 17.2002H24.8007C24.3632 17.2002 24.0007 17.5627 24.0007 18.0002C24.0007 18.4377 24.3632 18.8002 24.8007 18.8002H38.4007C38.8382 18.8002 39.2007 18.4377 39.2007 18.0002C39.2007 17.5627 38.8382 17.2002 38.4007 17.2002Z" fill="black"/>
<path fill-rule="evenodd" clip-rule="evenodd" d="M38.4007 20.3994H24.8007C24.3632 20.3994 24.0007 20.7619 24.0007 21.1994C24.0007 21.6369 24.3632 21.9994 24.8007 21.9994H38.4007C38.8382 21.9994 39.2007 21.6369 39.2007 21.1994C39.2007 20.7619 38.8382 20.3994 38.4007 20.3994Z" fill="black"/>
<path fill-rule="evenodd" clip-rule="evenodd" d="M32.0007 23.6006H24.8007C24.3632 23.6006 24.0007 23.9631 24.0007 24.4006C24.0007 24.8381 24.3632 25.2006 24.8007 25.2006H32.0007C32.4382 25.2006 32.8007 24.8381 32.8007 24.4006C32.8007 23.9631 32.4382 23.6006 32.0007 23.6006Z" fill="black"/>
<path fill-rule="evenodd" clip-rule="evenodd" d="M23.2002 30.8003H4.80024C4.36274 30.8003 4.00024 31.1628 4.00024 31.6003C4.00024 32.0378 4.36274 32.4003 4.80024 32.4003H23.2002C23.6377 32.4003 24.0002 32.0378 24.0002 31.6003C24.0002 31.1628 23.6377 30.8003 23.2002 30.8003Z" fill="black"/>
<path fill-rule="evenodd" clip-rule="evenodd" d="M20.8002 33.9995H4.80024C4.36274 33.9995 4.00024 34.362 4.00024 34.7995C4.00024 35.237 4.36274 35.5995 4.80024 35.5995H20.8002C21.2377 35.5995 21.6002 35.237 21.6002 34.7995C21.6002 34.362 21.2377 33.9995 20.8002 33.9995Z" fill="black"/>
</svg>
