<svg width="48" height="48" viewBox="0 0 48 48" fill="none" xmlns="http://www.w3.org/2000/svg">
<g clip-path="url(#clip0_65_1718)">
<path d="M41 35C40.7348 35 40.4805 35.1054 40.2929 35.2929C40.1054 35.4805 40 35.7348 40 36V40C40 40.7957 39.684 41.5587 39.1214 42.1214C38.5587 42.684 37.7957 43 37 43H5.00004C4.20439 43 3.44132 42.684 2.87872 42.1214C2.31611 41.5587 2.00004 40.7957 2.00004 40V8.00504C1.97813 7.60509 2.04069 7.20501 2.18364 6.83084C2.32659 6.45667 2.54672 6.11679 2.82971 5.83333C3.11271 5.54986 3.45222 5.32916 3.82615 5.18559C4.20008 5.04202 4.60005 4.9788 5.00004 5.00004H24.586L26.293 6.70704C26.4816 6.88919 26.7342 6.98999 26.9964 6.98771C27.2586 6.98543 27.5094 6.88026 27.6949 6.69485C27.8803 6.50945 27.9854 6.25863 27.9877 5.99644C27.99 5.73424 27.8892 5.48164 27.707 5.29304L25.707 3.29304C25.5195 3.10549 25.2652 3.00009 25 3.00004H5.00004C4.33668 2.97491 3.67529 3.08706 3.05729 3.32944C2.4393 3.57182 1.87802 3.93922 1.40862 4.40862C0.939223 4.87802 0.571823 5.4393 0.32944 6.05729C0.0870562 6.67529 -0.025087 7.33668 3.60191e-05 8.00004V40C0.00162388 41.3256 0.528918 42.5965 1.46626 43.5338C2.40359 44.4712 3.67444 44.9984 5.00004 45H37C38.3256 44.9984 39.5965 44.4712 40.5338 43.5338C41.4712 42.5965 41.9984 41.3256 42 40V36C42 35.7348 41.8947 35.4805 41.7071 35.2929C41.5196 35.1054 41.2653 35 41 35Z" fill="black"/>
<path d="M46 23H45C44.7348 23 44.4804 23.1054 44.2929 23.2929C44.1054 23.4804 44 23.7348 44 24C44 24.2652 44.1054 24.5196 44.2929 24.7071C44.4804 24.8946 44.7348 25 45 25H46V31H32V25H41C41.2652 25 41.5196 24.8946 41.7071 24.7071C41.8946 24.5196 42 24.2652 42 24V14C41.9984 12.6744 41.4711 11.4036 40.5338 10.4662C39.5964 9.52888 38.3256 9.00159 37 9H6C5.73478 9 5.48043 9.10536 5.29289 9.29289C5.10536 9.48043 5 9.73478 5 10C5 10.2652 5.10536 10.5196 5.29289 10.7071C5.48043 10.8946 5.73478 11 6 11H37C37.7956 11 38.5587 11.3161 39.1213 11.8787C39.6839 12.4413 40 13.2044 40 14V23H32C31.4696 23 30.9609 23.2107 30.5858 23.5858C30.2107 23.9609 30 24.4696 30 25V31C30 31.5304 30.2107 32.0391 30.5858 32.4142C30.9609 32.7893 31.4696 33 32 33H46C46.5304 33 47.0391 32.7893 47.4142 32.4142C47.7893 32.0391 48 31.5304 48 31V25C48 24.4696 47.7893 23.9609 47.4142 23.5858C47.0391 23.2107 46.5304 23 46 23Z" fill="black"/>
<path d="M35 27C34.7348 27 34.4804 27.1054 34.2929 27.2929C34.1054 27.4804 34 27.7348 34 28C34 28.2652 34.1054 28.5196 34.2929 28.7071C34.4804 28.8946 34.7348 29 35 29H37C37.2652 29 37.5196 28.8946 37.7071 28.7071C37.8946 28.5196 38 28.2652 38 28C38 27.7348 37.8946 27.4804 37.7071 27.2929C37.5196 27.1054 37.2652 27 37 27H35Z" fill="black"/>
<path d="M5.99995 35C5.73473 35 5.48038 35.1054 5.29284 35.2929C5.10531 35.4804 4.99995 35.7348 4.99995 36V38C4.99436 38.2642 5.04227 38.5268 5.1408 38.7719C5.23933 39.0171 5.38645 39.2398 5.57329 39.4267C5.76013 39.6135 5.98284 39.7606 6.22802 39.8591C6.4732 39.9577 6.73577 40.0056 6.99995 40H8.99995C9.26517 40 9.51952 39.8946 9.70706 39.7071C9.89459 39.5196 9.99995 39.2652 9.99995 39C9.99995 38.7348 9.89459 38.4804 9.70706 38.2929C9.51952 38.1054 9.26517 38 8.99995 38H6.99995V36C6.99995 35.7348 6.89459 35.4804 6.70706 35.2929C6.51952 35.1054 6.26517 35 5.99995 35Z" fill="black"/>
<path d="M36 18.9999C36.2652 18.9999 36.5196 18.8946 36.7071 18.7071C36.8946 18.5195 37 18.2652 37 17.9999V16C37.0056 15.7358 36.9577 15.4732 36.8591 15.228C36.7606 14.9828 36.6135 14.7601 36.4267 14.5733C36.2398 14.3864 36.0171 14.2393 35.7719 14.1408C35.5268 14.0423 35.2642 13.9944 35 14H33C32.7348 14 32.4804 14.1053 32.2929 14.2928C32.1054 14.4804 32 14.7347 32 15C32 15.2652 32.1054 15.5195 32.2929 15.7071C32.4804 15.8946 32.7348 16 33 16H35V17.9999C35 18.2652 35.1054 18.5195 35.2929 18.7071C35.4804 18.8946 35.7348 18.9999 36 18.9999Z" fill="black"/>
<path d="M13 39C13 39.2652 13.1054 39.5196 13.2929 39.7071C13.4804 39.8946 13.7348 40 14 40H34C34.2652 40 34.5196 39.8946 34.7071 39.7071C34.8946 39.5196 35 39.2652 35 39C35 38.7348 34.8946 38.4804 34.7071 38.2929C34.5196 38.1054 34.2652 38 34 38H14C13.7348 38 13.4804 38.1054 13.2929 38.2929C13.1054 38.4804 13 38.7348 13 39Z" fill="black"/>
<path d="M28 14H8C7.73478 14 7.48043 14.1054 7.29289 14.2929C7.10536 14.4804 7 14.7348 7 15C7 15.2652 7.10536 15.5196 7.29289 15.7071C7.48043 15.8946 7.73478 16 8 16H28C28.2652 16 28.5196 15.8946 28.7071 15.7071C28.8946 15.5196 29 15.2652 29 15C29 14.7348 28.8946 14.4804 28.7071 14.2929C28.5196 14.1054 28.2652 14 28 14Z" fill="black"/>
</g>
<defs>
<clipPath id="clip0_65_1718">
<rect width="48" height="48" fill="white"/>
</clipPath>
</defs>
</svg>
